<svg xmlns:mydata="http://www.w3.org/2000/svg" mydata:contrastcolor="F2A900" mydata:template="Contrast" mydata:presentation="2.5" mydata:layouttype="undefined" mydata:specialfontid="undefined" mydata:id1="169" mydata:id2="168" mydata:companyname="Opinion Collector" mydata:companytagline="" version="1.1" xmlns="http://www.w3.org/2000/svg" xmlns:xlink="http://www.w3.org/1999/xlink" viewBox="0 0 550 470"><g fill="#101820" fill-rule="none" stroke="none" stroke-width="1" stroke-linecap="butt" stroke-linejoin="miter" stroke-miterlimit="10" stroke-dasharray="" stroke-dashoffset="0" font-family="none" font-weight="none" font-size="none" text-anchor="none" style="mix-blend-mode: normal"><g data-paper-data="{&quot;isGlobalGroup&quot;:true,&quot;bounds&quot;:{&quot;x&quot;:144.66415885913102,&quot;y&quot;:116.36091692596567,&quot;width&quot;:260.67168228173796,&quot;height&quot;:237.27816614806864}}"><g data-paper-data="{&quot;stacked&quot;:true,&quot;isPrimaryText&quot;:true}" fill-rule="nonzero"><path d="M194.319,278.38882c5.62538,0 9.04389,4.71667 9.04389,9.56315c0,4.71667 -2.42324,10.16897 -9.04389,10.16897c-6.62065,0 -9.04389,-5.4523 -9.04389,-10.16897c0,-4.84649 3.4185,-9.56315 9.04389,-9.56315zM194.319,305.39066c10.51514,0 17.00597,-7.61591 17.00597,-17.17906c0,-9.6497 -6.75046,-17.13579 -17.00597,-17.13579c-10.25551,0 -17.00597,7.48609 -17.00597,17.13579c0,9.56315 6.49083,17.17906 17.00597,17.17906z" data-paper-data="{&quot;glyphName&quot;:&quot;O&quot;,&quot;glyphIndex&quot;:0,&quot;firstGlyphOfWord&quot;:true,&quot;word&quot;:1,&quot;line&quot;:1,&quot;firstGlyphOfFirstLine&quot;:true}"></path><path d="M225.25862,278.259c3.54832,0 5.4523,0.56254 5.4523,4.02431c0,3.54832 -1.60107,4.24067 -5.27921,4.24067h-1.34144v-8.26499zM227.33568,292.84173c7.09664,0 11.29404,-3.50505 11.29404,-10.55841c0,-7.57263 -4.9763,-10.34205 -12.15949,-10.34205h-10.16897v32.62723h7.78899v-11.72676z" data-paper-data="{&quot;glyphName&quot;:&quot;P&quot;,&quot;glyphIndex&quot;:1,&quot;word&quot;:1,&quot;line&quot;:1}"></path><path d="M249.83722,304.56849v-32.62723h-8.0919v32.62723z" data-paper-data="{&quot;glyphName&quot;:&quot;I&quot;,&quot;glyphIndex&quot;:2,&quot;word&quot;:1,&quot;line&quot;:1}"></path><path d="M285.83968,305.1743v-33.23304h-7.74572v19.55903l-16.61652,-19.81866h-5.58211v32.88687h7.74572v-19.16958l16.57325,19.77539z" data-paper-data="{&quot;glyphName&quot;:&quot;N&quot;,&quot;glyphIndex&quot;:3,&quot;word&quot;:1,&quot;line&quot;:1}"></path><path d="M299.25406,304.56849v-32.62723h-8.0919v32.62723z" data-paper-data="{&quot;glyphName&quot;:&quot;I&quot;,&quot;glyphIndex&quot;:4,&quot;word&quot;:1,&quot;line&quot;:1}"></path><path d="M319.98144,278.38882c5.62538,0 9.04389,4.71667 9.04389,9.56315c0,4.71667 -2.42324,10.16897 -9.04389,10.16897c-6.62065,0 -9.04389,-5.4523 -9.04389,-10.16897c0,-4.84649 3.4185,-9.56315 9.04389,-9.56315zM319.98144,305.39066c10.51514,0 17.00597,-7.61591 17.00597,-17.17906c0,-9.6497 -6.75046,-17.13579 -17.00597,-17.13579c-10.25551,0 -17.00597,7.48609 -17.00597,17.13579c0,9.56315 6.49083,17.17906 17.00597,17.17906z" data-paper-data="{&quot;glyphName&quot;:&quot;O&quot;,&quot;glyphIndex&quot;:5,&quot;word&quot;:1,&quot;line&quot;:1}"></path><path d="M372.68697,305.1743v-33.23304h-7.74572v19.55903l-16.61652,-19.81866h-5.58211v32.88687h7.74572v-19.16958l16.57325,19.77539z" data-paper-data="{&quot;glyphName&quot;:&quot;N&quot;,&quot;glyphIndex&quot;:6,&quot;lastGlyphOfWord&quot;:true,&quot;word&quot;:1,&quot;line&quot;:1,&quot;lastGlyphOfFirstLine&quot;:true}"></path><path d="M161.67013,353.63908c7.18318,0 12.54894,-3.54832 15.70781,-9.9526l-8.39481,-1.0818c-1.73089,2.42324 -3.8945,3.76468 -7.313,3.76468c-6.57737,0 -9.04389,-5.4523 -9.04389,-10.16897c0,-4.84649 3.4185,-9.56315 9.04389,-9.56315c2.98578,0 5.27921,1.25489 7.13991,3.54832l8.35153,-1.42798c-3.33196,-6.10138 -8.65444,-9.43334 -15.49144,-9.43334c-10.25551,0 -17.00597,7.48609 -17.00597,17.13579c0,9.56315 6.5341,17.17906 17.00597,17.17906z" data-paper-data="{&quot;glyphName&quot;:&quot;C&quot;,&quot;glyphIndex&quot;:7,&quot;firstGlyphOfWord&quot;:true,&quot;word&quot;:2,&quot;line&quot;:2,&quot;firstGlyphOfSecondLine&quot;:true}"></path><path d="M195.50898,326.59396c5.62538,0 9.04389,4.71667 9.04389,9.56315c0,4.71667 -2.42324,10.16897 -9.04389,10.16897c-6.62065,0 -9.04389,-5.4523 -9.04389,-10.16897c0,-4.84649 3.4185,-9.56315 9.04389,-9.56315zM195.50898,353.59581c10.51514,0 17.00597,-7.61591 17.00597,-17.17906c0,-9.6497 -6.75046,-17.13579 -17.00597,-17.13579c-10.25551,0 -17.00597,7.48609 -17.00597,17.13579c0,9.56315 6.49083,17.17906 17.00597,17.17906z" data-paper-data="{&quot;glyphName&quot;:&quot;O&quot;,&quot;glyphIndex&quot;:8,&quot;word&quot;:2,&quot;line&quot;:2}"></path><path d="M236.96374,352.77364v-6.57737h-11.68349v-26.04986h-7.78899v32.62723z" data-paper-data="{&quot;glyphName&quot;:&quot;L&quot;,&quot;glyphIndex&quot;:9,&quot;word&quot;:2,&quot;line&quot;:2}"></path><path d="M259.68164,352.77364v-6.57737h-11.68349v-26.04986h-7.78899v32.62723z" data-paper-data="{&quot;glyphName&quot;:&quot;L&quot;,&quot;glyphIndex&quot;:10,&quot;word&quot;:2,&quot;line&quot;:2}"></path><path d="M283.04863,352.77364v-6.57737h-12.33257v-7.0101h12.15949v-6.57737h-12.15949v-5.88502h12.33257v-6.57737h-20.12157v32.62723z" data-paper-data="{&quot;glyphName&quot;:&quot;E&quot;,&quot;glyphIndex&quot;:11,&quot;word&quot;:2,&quot;line&quot;:2}"></path><path d="M302.82402,353.63908c7.18318,0 12.54894,-3.54832 15.70781,-9.9526l-8.39481,-1.0818c-1.73089,2.42324 -3.8945,3.76468 -7.313,3.76468c-6.57737,0 -9.04389,-5.4523 -9.04389,-10.16897c0,-4.84649 3.4185,-9.56315 9.04389,-9.56315c2.98578,0 5.27921,1.25489 7.13991,3.54832l8.35153,-1.42798c-3.33196,-6.10138 -8.65444,-9.43334 -15.49144,-9.43334c-10.25551,0 -17.00597,7.48609 -17.00597,17.13579c0,9.56315 6.5341,17.17906 17.00597,17.17906z" data-paper-data="{&quot;glyphName&quot;:&quot;C&quot;,&quot;glyphIndex&quot;:12,&quot;word&quot;:2,&quot;line&quot;:2}"></path><path d="M340.12465,326.94014v-6.57737h-21.20337v6.57737h6.66392v25.8335h7.83227v-25.8335z" data-paper-data="{&quot;glyphName&quot;:&quot;T&quot;,&quot;glyphIndex&quot;:13,&quot;word&quot;:2,&quot;line&quot;:2}"></path><path d="M358.90478,326.59396c5.62538,0 9.04389,4.71667 9.04389,9.56315c0,4.71667 -2.42324,10.16897 -9.04389,10.16897c-6.62065,0 -9.04389,-5.4523 -9.04389,-10.16897c0,-4.84649 3.4185,-9.56315 9.04389,-9.56315zM358.90478,353.59581c10.51514,0 17.00597,-7.61591 17.00597,-17.17906c0,-9.6497 -6.75046,-17.13579 -17.00597,-17.13579c-10.25551,0 -17.00597,7.48609 -17.00597,17.13579c0,9.56315 6.49083,17.17906 17.00597,17.17906z" data-paper-data="{&quot;glyphName&quot;:&quot;O&quot;,&quot;glyphIndex&quot;:14,&quot;word&quot;:2,&quot;line&quot;:2}"></path><path d="M389.0655,326.42087c3.33196,0 5.36575,0.69236 5.36575,4.02431c0,3.28869 -2.03379,4.32722 -5.40902,4.37049h-1.29817v-8.39481zM405.33584,352.77364l-8.30826,-13.15475c4.02431,-1.77416 5.19266,-5.53884 5.19266,-9.34679c0,-7.18318 -4.9763,-10.08242 -11.77004,-10.08242h-10.51514v32.58396h7.78899v-12.24603h1.81743l6.40428,12.24603z" data-paper-data="{&quot;glyphName&quot;:&quot;R&quot;,&quot;glyphIndex&quot;:15,&quot;lastGlyphOfWord&quot;:true,&quot;word&quot;:2,&quot;line&quot;:2,&quot;lastGlyphOfSecondLine&quot;:true}"></path></g><g data-paper-data="{&quot;isIcon&quot;:&quot;true&quot;,&quot;iconType&quot;:&quot;icon&quot;,&quot;rawIconId&quot;:&quot;1450274&quot;,&quot;selectedEffects&quot;:{&quot;container&quot;:&quot;&quot;,&quot;transformation&quot;:&quot;&quot;,&quot;pattern&quot;:&quot;&quot;},&quot;isDetailed&quot;:false,&quot;fillRule&quot;:&quot;evenodd&quot;,&quot;bounds&quot;:{&quot;x&quot;:209.97057761955543,&quot;y&quot;:116.36091692596567,&quot;width&quot;:130.05884476088912,&quot;height&quot;:130.05884476088914},&quot;iconStyle&quot;:&quot;standalone&quot;,&quot;suitableAsStandaloneIcon&quot;:true}" fill-rule="evenodd"><path d="M209.97058,181.39034c0,-35.91474 29.11468,-65.02942 65.02942,-65.02942c35.8823,0.07826 64.95116,29.14712 65.02942,65.02942c0,35.91474 -29.11468,65.02942 -65.02942,65.02942c-35.91474,0 -65.02942,-29.11468 -65.02942,-65.02942zM218.5085,181.58002c0.02618,31.18083 25.31053,56.44411 56.4915,56.44426v-0.1423c31.16702,-0.07826 56.41338,-25.32462 56.49164,-56.49164c-0.07855,-31.18083 -25.40544,-56.40157 -56.58627,-56.3492c-31.18083,0.05223 -56.42291,25.35792 -56.39687,56.53888zM231.03043,181.39034c0,-24.28372 19.68584,-43.96957 43.96957,-43.96957c24.28372,0 43.96957,19.68584 43.96957,43.96957c0,24.28372 -19.68584,43.96957 -43.96957,43.96957c-24.28372,0 -43.96957,-19.68584 -43.96957,-43.96957zM239.56821,181.39034c0,19.56845 15.86334,35.43179 35.43179,35.43179c9.39711,0 18.4093,-3.733 25.05411,-10.37767c6.64467,-6.64481 10.37767,-15.65701 10.37767,-25.05411c0,-19.56845 -15.86334,-35.43179 -35.43179,-35.43179c-19.56845,0 -35.43179,15.86334 -35.43179,35.43179zM275,157.34226c-13.28137,0 -24.04808,10.76671 -24.04808,24.04808c0,13.28137 10.76671,24.04808 24.04808,24.04808c13.28137,0 24.04808,-10.76671 24.04808,-24.04808c0,-6.37801 -2.53359,-12.49462 -7.04353,-17.00456c-4.50994,-4.50994 -10.62655,-7.04353 -17.00456,-7.04353zM275,196.90064c-8.5661,0 -15.5103,-6.94421 -15.5103,-15.5103c0,-8.5661 6.94421,-15.5103 15.5103,-15.5103c8.5661,0 15.5103,6.94421 15.5103,15.5103c0,8.5661 -6.94421,15.5103 -15.5103,15.5103z" data-paper-data="{&quot;isPathIcon&quot;:true}"></path></g></g></g></svg>
